<svg t="1663577571279" class="icon" viewBox="0 0 1024 1024" version="1.1" xmlns="http://www.w3.org/2000/svg" p-id="2593" width="32" height="32"><path d="M440.62433787 801.97657283A81.89766922 81.89766922 0 0 0 429.14955061 843.40179753a82.85044939 82.85044939 0 1 0 165.70089878 0c0-15.16163223-4.39107381-29.20478341-11.51621247-41.42522468-14.33312774-24.64800869-40.7624211-41.42522469-71.33423692-41.4252247-30.61324105 0-57.0425344 16.777216-71.37566213 41.42522468M440.62433787 470.57477531A81.89766922 81.89766922 0 0 0 429.1495506 512c0 15.16163223 4.34964859 29.20478341 11.47478727 41.42522469 14.33312774 24.64800869 40.7624211 41.42522469 71.37566213 41.42522471 30.57181581 0 57.00110917-16.77721599 71.33423692-41.42522471 7.12513865-12.22044128 11.51621246-26.26359245 11.51621248-41.42522469s-4.39107381-29.20478341-11.51621248-41.42522469c-14.33312774-24.64800869-40.7624211-41.42522469-71.33423692-41.42522471-30.61324105 0-57.0425344 16.777216-71.37566213 41.42522471M429.14955061 180.59820247c0 15.16163223 4.39107381 29.20478341 11.47478726 41.4252247 14.37455297 24.64800869 40.80384631 41.42522469 71.37566213 41.42522468 30.57181581 0 57.00110917-16.77721599 71.37566213-41.42522468 7.08371342-12.22044128 11.47478723-26.26359245 11.47478726-41.4252247a82.85044939 82.85044939 0 1 0-165.70089878 0" p-id="2594"></path></svg>
